<svg width="1295" height="1310" viewBox="0 0 1295 1310" fill="none" xmlns="http://www.w3.org/2000/svg">
<path fill-rule="evenodd" clip-rule="evenodd" d="M1029.81 641.478L426.997 257.048V1017.24H440.584L1029.81 641.478ZM198.223 1307.95V727.445L30.2046 1075.39C10.2404 1115.33 0.258301 1145.28 0.258301 1165.25C0.258301 1207.54 34.3149 1245.12 102.428 1278.01C142.357 1297.98 173.478 1307.97 195.791 1307.97C196.607 1307.97 197.418 1307.96 198.223 1307.95ZM531.245 52.5569C540.663 42.2408 551.568 33.14 563.955 25.2548C590.966 8.80968 619.151 0.587158 648.51 0.587158C711.926 0.587158 758.901 31.128 789.434 92.2096L876.589 272.373L531.245 52.5569ZM1149.63 836.79L1265.05 1075.39C1285.02 1115.33 1295 1145.28 1295 1165.25C1295 1207.54 1260.94 1245.71 1192.83 1279.78C1152.9 1299.75 1121.19 1309.73 1097.71 1309.73C1075.39 1309.73 1056.6 1304.44 1041.34 1293.87C1027.24 1283.3 1016.67 1272.14 1009.63 1260.39L983.205 1207.54L891.604 1017.24H866.127L1149.63 836.79ZM530.486 756.472L646.748 515.082L764.772 756.472H530.486Z" fill="#3F51B5"/>
</svg>
