<?xml version="1.0" standalone="no"?>
<!DOCTYPE svg PUBLIC "-//W3C//DTD SVG 20010904//EN"
 "http://www.w3.org/TR/2001/REC-SVG-20010904/DTD/svg10.dtd">
<svg version="1.0" xmlns="http://www.w3.org/2000/svg"
 width="416.000000pt" height="416.000000pt" viewBox="0 0 416.000000 416.000000"
 preserveAspectRatio="xMidYMid meet">
<metadata>
Created by potrace 1.16, written by Peter Selinger 2001-2019
</metadata>
<g transform="translate(0.000000,416.000000) scale(0.100000,-0.100000)"
fill="#000000" stroke="none">
<path d="M0 2080 l0 -2080 2080 0 2080 0 0 2080 0 2080 -2080 0 -2080 0 0
-2080z m3030 875 c6 -8 9 -23 5 -35 -6 -20 -8 -20 -864 -20 l-857 0 -36 -37
c-57 -59 -81 -123 -82 -218 -1 -97 31 -176 86 -219 l35 -26 853 -2 c783 -3
854 -4 863 -20 8 -12 7 -21 -2 -32 -12 -14 -100 -16 -865 -16 l-852 0 -34 -32
c-18 -18 -45 -58 -58 -88 -54 -117 -25 -289 60 -354 l35 -26 853 -2 c783 -3
854 -4 863 -20 8 -12 7 -21 -2 -32 -12 -14 -100 -16 -866 -16 l-853 0 -33 -32
c-86 -87 -111 -248 -56 -361 16 -31 43 -68 61 -82 l33 -25 856 0 c854 0 856 0
862 -20 16 -52 48 -50 -880 -50 l-862 0 -39 29 c-54 39 -69 58 -101 126 -25
53 -28 72 -28 155 0 113 18 172 73 246 l39 50 -39 44 c-55 62 -83 157 -75 259
7 96 27 152 75 217 l39 50 -39 44 c-56 62 -82 157 -75 263 7 105 59 214 125
264 l44 33 863 0 c742 0 864 -2 875 -15z m-155 -221 c-41 -48 -75 -89 -75 -93
1 -3 32 -40 70 -81 l69 -75 -801 -3 c-631 -2 -804 1 -816 10 -67 56 -67 235 0
315 8 10 165 13 820 13 l809 0 -76 -86z m65 -490 c0 -4 -26 -36 -58 -73 -31
-36 -63 -74 -71 -83 -11 -15 -5 -27 58 -95 l71 -78 -801 -3 c-632 -2 -805 1
-817 10 -67 56 -67 235 0 315 8 10 165 13 814 13 442 0 804 -3 804 -6z m0
-568 c0 -3 -31 -41 -70 -86 -38 -45 -70 -84 -70 -87 0 -2 32 -39 71 -81 l70
-77 -802 -3 c-632 -2 -805 1 -817 10 -67 56 -67 235 0 315 8 10 165 13 814 13
442 0 804 -2 804 -4z"/>
</g>
</svg>
